<?xml version="1.0" encoding="UTF-8"?>
<svg xmlns="http://www.w3.org/2000/svg" xmlns:xlink="http://www.w3.org/1999/xlink" viewBox="0 0 132 52">
  <defs>
    <style>
      .cls-1 {
        fill: url(#linear-gradient);
      }

      .cls-2 {
        fill: #262a37;
      }

      .cls-3 {
        fill: url(#linear-gradient-4);
        mix-blend-mode: overlay;
      }

      .cls-4 {
        fill: url(#linear-gradient-8);
      }

      .cls-5 {
        fill: url(#linear-gradient-3);
      }

      .cls-6 {
        fill: url(#linear-gradient-2);
      }

      .cls-7 {
        fill: url(#linear-gradient-6);
      }

      .cls-8 {
        fill: url(#linear-gradient-7);
      }

      .cls-9 {
        isolation: isolate;
      }

      .cls-10 {
        fill: url(#linear-gradient-9);
        opacity: .32;
      }

      .cls-11 {
        fill: url(#linear-gradient-5);
        opacity: .42;
      }
    </style>
    <linearGradient id="linear-gradient" x1="111.33" y1="19" x2="131.1" y2="19" gradientUnits="userSpaceOnUse">
      <stop offset="0" stop-color="#ed2775"/>
      <stop offset="1" stop-color="#710cb0"/>
    </linearGradient>
    <linearGradient id="linear-gradient-2" x1="108.14" y1="13.24" x2="125.41" y2="23.59" gradientUnits="userSpaceOnUse">
      <stop offset="0" stop-color="#ed2775" stop-opacity="0"/>
      <stop offset="1" stop-color="#ed2775"/>
    </linearGradient>
    <linearGradient id="linear-gradient-3" x1="124.15" y1="36.99" x2="124.15" y2="3.65" gradientUnits="userSpaceOnUse">
      <stop offset="0" stop-color="#ed2775"/>
      <stop offset="1" stop-color="#ed0075"/>
    </linearGradient>
    <linearGradient id="linear-gradient-4" x1="122.61" y1="21.42" x2="136.02" y2="25.77" gradientUnits="userSpaceOnUse">
      <stop offset="0" stop-color="#ed2775"/>
      <stop offset=".11" stop-color="#ed2775" stop-opacity=".86"/>
      <stop offset=".35" stop-color="#ed2775" stop-opacity=".56"/>
      <stop offset=".57" stop-color="#ed2775" stop-opacity=".32"/>
      <stop offset=".76" stop-color="#ed2775" stop-opacity=".14"/>
      <stop offset=".91" stop-color="#ed2775" stop-opacity=".04"/>
      <stop offset="1" stop-color="#ed2775" stop-opacity="0"/>
    </linearGradient>
    <linearGradient id="linear-gradient-5" x1="113.51" y1="21.76" x2="131.73" y2="30.72" gradientUnits="userSpaceOnUse">
      <stop offset="0" stop-color="#8a0bff"/>
      <stop offset="1" stop-color="#2a0056" stop-opacity="0"/>
    </linearGradient>
    <linearGradient id="linear-gradient-6" x1="109.33" y1="28.41" x2="121.25" y2="44.79" gradientUnits="userSpaceOnUse">
      <stop offset="0" stop-color="#b13a48"/>
      <stop offset="1" stop-color="#fc7448"/>
    </linearGradient>
    <linearGradient id="linear-gradient-7" x1="106.81" y1="48.35" x2="106.81" y2="15.01" gradientUnits="userSpaceOnUse">
      <stop offset="0" stop-color="#ed2775"/>
      <stop offset="1" stop-color="#fc7400"/>
    </linearGradient>
    <linearGradient id="linear-gradient-8" x1="95.95" y1="24.44" x2="120.21" y2="35.55" gradientUnits="userSpaceOnUse">
      <stop offset="0" stop-color="#fc7448"/>
      <stop offset="1" stop-color="#fc7448"/>
    </linearGradient>
    <linearGradient id="linear-gradient-9" x1="229.2" y1="725.91" x2="247.42" y2="734.87" gradientTransform="translate(346.65 756.15) rotate(-180)" xlink:href="#linear-gradient-5"/>
  </defs>
  <g class="cls-9">
    <g id="Layer_1" data-name="Layer 1">
      <g>
        <g>
          <path class="cls-2" d="M24.14,16.58c.76,0,1.37-.21,1.83-.63,.46-.42,.69-.99,.71-1.72-.02-.74-.27-1.41-.74-2-.48-.59-1.07-.97-1.8-1.14-.72,.17-1.32,.56-1.8,1.16-.48,.6-.71,1.27-.71,2.02s.23,1.27,.68,1.69c.46,.42,1.06,.63,1.83,.63Zm0-3.46c.4,.19,.6,.5,.6,.91,0,.5-.2,.74-.6,.74s-.63-.25-.63-.74c0-.44,.21-.74,.63-.91Z"/>
          <polygon class="cls-2" points="51.74 8.09 44.24 9.43 42.96 12.2 50.46 10.83 51.74 8.09"/>
          <polygon class="cls-2" points="57.39 41.42 64.89 40.05 66.17 37.3 58.67 38.65 57.39 41.42"/>
          <path class="cls-2" d="M64.43,31.99c1.06-.97,1.6-2.32,1.6-4.03v-.37c0-2.48-.97-4.37-2.91-5.69-1.08-.74-2.34-1.17-3.76-1.29l5.19-5.83h-3.62l-5.79,6.46v3.46c1.06-.38,2.07-.57,3.02-.57,1.27,0,2.31,.32,3.09,.97,.79,.65,1.18,1.49,1.18,2.52v.17c0,1.32-.67,1.97-2,1.97h-8.64c-.72,0-1.24-.16-1.54-.47-.3-.31-.46-.84-.46-1.59v-7.18l-.03,.03v-5.77l-3.56,1.92v10.55c0,.91-.19,1.56-.56,1.94-.37,.38-.99,.57-1.87,.57h-6.02c-.87,0-1.5-.19-1.87-.57-.37-.38-.56-1.03-.56-1.94v-6.72l-3.56,1.89v5.29c0,.74-.16,1.27-.47,1.59s-.83,.47-1.55,.47h-1.94c-.72,0-1.24-.16-1.55-.47s-.47-.84-.47-1.59v-6.43l-3.56,1.92v4.52c0,.74-.16,1.27-.47,1.59s-.83,.47-1.55,.47h-1.91c-.72,0-1.24-.16-1.55-.47s-.47-.84-.47-1.59v-5.66l-3.59,1.89v7.46c0,1.2-.37,2.13-1.1,2.8-.73,.67-1.75,1-3.07,1s-2.27-.43-3.05-1.29c-.82-.9-1.23-2.07-1.23-3.52s.38-2.79,1.14-4.09l-3.42,.71c-.7,1.12-1.06,2.44-1.06,3.95,0,1.91,.55,3.56,1.65,4.97,1.41,1.81,3.39,2.72,5.96,2.72,1.9,0,3.52-.46,4.85-1.37,1.48-1.05,2.4-2.49,2.77-4.32,.55,.17,1.15,.26,1.8,.26h2.74c1.35-.02,2.47-.39,3.37-1.11,.89,.74,2.04,1.11,3.45,1.11h2.71c1.46-.04,2.64-.46,3.54-1.26,1.05,.84,2.33,1.26,3.85,1.26h6.42c1.52,0,2.8-.42,3.85-1.26,.93,.84,2.14,1.26,3.62,1.26h9.35c1.48,0,2.69-.41,3.62-1.23Z"/>
          <path class="cls-2" d="M78.73,13.93c.48-.62,.73-1.35,.73-2.19s-.25-1.53-.74-2.09c-.49-.55-1.12-.83-1.88-.83s-1.34,.28-1.84,.84c-.5,.56-.76,1.25-.76,2.07,0,.53,.13,1.04,.4,1.52l-3.05,.57-1.11,2.37,6.39-1.17c.76-.11,1.38-.48,1.87-1.1Zm-2.44-2.36c0-.51,.2-.77,.6-.77s.57,.26,.57,.77c0,.36-.18,.68-.54,.94-.42-.25-.63-.56-.63-.94Z"/>
          <path class="cls-2" d="M90.01,22.41v5.29c0,.74-.15,1.27-.46,1.59-.3,.31-.82,.47-1.54,.47h-7.67v-4.43c0-1.51-.41-2.73-1.23-3.66-.95-1.09-2.27-1.63-3.96-1.63s-2.99,.53-3.99,1.6c-1.14,1.22-1.71,2.88-1.71,4.97,0,1.6,.45,2.96,1.34,4.09,1.06,1.33,2.58,2.11,4.53,2.32,.17,.02,.42,.05,.74,.09,.32,.02,.56,.04,.71,.06-.06,.61-.39,1.13-1.01,1.57-.62,.44-1.33,.66-2.12,.66-1.03,0-2.05-.3-3.08-.89v3.12c1.14,.65,2.31,.97,3.51,.97,1.52,0,2.85-.42,3.99-1.26,1.39-1.03,2.15-2.4,2.28-4.12h8.01c1.5,0,2.72-.43,3.65-1.29,1.06-.97,1.6-2.32,1.6-4.06v-7.35l-3.59,1.89Zm-13.23,7.32c-.59-.04-1.02-.09-1.28-.14-1.67-.21-2.51-1.24-2.51-3.09,0-2.08,.72-3.12,2.17-3.12,1.08,0,1.63,.63,1.63,1.89v4.46Z"/>
          <path class="cls-2" d="M91.38,35.82c-1.25,0-1.88,.62-1.88,1.86,0,.59,.17,1.06,.51,1.4s.8,.51,1.37,.51c1.24,0,1.85-.64,1.85-1.92,0-.57-.17-1.02-.5-1.36s-.78-.5-1.35-.5Z"/>
          <path class="cls-2" d="M86.99,35.82c-1.25,0-1.88,.62-1.88,1.86,0,.59,.17,1.06,.51,1.4s.8,.51,1.37,.51c1.24,0,1.85-.64,1.85-1.92,0-.57-.17-1.02-.5-1.36s-.78-.5-1.35-.5Z"/>
        </g>
        <g>
          <g>
            <path class="cls-1" d="M117.03,1h-5.7l11.72,23.64-5.86,12.35h6.9c1.03,0,1.97-.61,2.43-1.56l4.13-8.7c.62-1.31,.61-2.85-.04-4.15L121.23,3.65c-.81-1.63-2.43-2.65-4.2-2.65Z"/>
            <path class="cls-6" d="M117.03,1h-5.7l11.72,23.64-5.86,12.35h6.9c1.03,0,1.97-.61,2.43-1.56l4.13-8.7c.62-1.31,.61-2.85-.04-4.15L121.23,3.65c-.81-1.63-2.43-2.65-4.2-2.65Z"/>
            <path class="cls-5" d="M121.23,3.65c4.67,9.42,5.04,14.21,1.82,20.99l-5.86,12.35h6.9c1.03,0,1.97-.61,2.43-1.56l4.13-8.7c.62-1.31,.61-2.85-.04-4.15L121.23,3.65Z"/>
            <path class="cls-3" d="M121.23,3.65c4.67,9.42,5.04,14.21,1.82,20.99l-5.86,12.35h6.9c1.03,0,1.97-.61,2.43-1.56l4.13-8.7c.62-1.31,.61-2.85-.04-4.15L121.23,3.65Z"/>
            <path class="cls-11" d="M130.61,22.58l-2.65-5.34c.18,3.06-.54,5.85-2.08,9.09l-5.06,10.66h3.26c1.03,0,1.97-.61,2.43-1.56l4.13-8.7c.62-1.31,.61-2.85-.04-4.15Z"/>
          </g>
          <g>
            <path class="cls-7" d="M113.93,51h5.7l-11.72-23.64,5.86-12.35h-6.9c-1.03,0-1.97,.61-2.43,1.56l-4.13,8.7c-.62,1.31-.61,2.85,.04,4.15l9.38,18.92c.81,1.63,2.43,2.65,4.2,2.65Z"/>
            <path class="cls-8" d="M109.73,48.35c-4.67-9.42-5.04-14.21-1.82-20.99l5.86-12.35h-6.9c-1.03,0-1.97,.61-2.43,1.56l-4.13,8.7c-.62,1.31-.61,2.85,.04,4.15l9.38,18.92Z"/>
            <path class="cls-4" d="M109.73,48.35c-4.67-9.42-5.04-14.21-1.82-20.99l5.86-12.35h-6.9c-1.03,0-1.97,.61-2.43,1.56l-4.13,8.7c-.62,1.31-.61,2.85,.04,4.15l9.38,18.92Z"/>
            <path class="cls-10" d="M100.35,29.42l2.65,5.34c-.18-3.06,.54-5.85,2.08-9.09l5.06-10.66h-3.26c-1.03,0-1.97,.61-2.43,1.56l-4.13,8.7c-.62,1.31-.61,2.85,.04,4.15Z"/>
          </g>
        </g>
      </g>
    </g>
  </g>
</svg>